<?xml version="1.0" encoding="utf-8"?>
<!-- Generator: Adobe Illustrator 14.0.0, SVG Export Plug-In . SVG Version: 6.00 Build 43363)  -->
<!DOCTYPE svg PUBLIC "-//W3C//DTD SVG 1.1//EN" "http://www.w3.org/Graphics/SVG/1.1/DTD/svg11.dtd">
<svg version="1.1"
	 id="svg2" xmlns:sodipodi="http://sodipodi.sourceforge.net/DTD/sodipodi-0.dtd" xmlns:inkscape="http://www.inkscape.org/namespaces/inkscape" xmlns:cc="http://web.resource.org/cc/" sodipodi:docbase="C:\Documents and Settings\mwtoews\Desktop" sodipodi:version="0.32" inkscape:version="0.44" xmlns:dc="http://purl.org/dc/elements/1.1/" xmlns:svg="http://www.w3.org/2000/svg" xmlns:rdf="http://www.w3.org/1999/02/22-rdf-syntax-ns#" sodipodi:docname="Acf.svg"
	 xmlns="http://www.w3.org/2000/svg" xmlns:xlink="http://www.w3.org/1999/xlink" x="0px" y="0px" width="216.811px"
	 height="289.08px" viewBox="0 0 216.811 289.08" enable-background="new 0 0 216.811 289.08" xml:space="preserve">
<sodipodi:namedview  id="base" inkscape:window-width="853" guidetolerance="10.0" inkscape:pageopacity="0.0" inkscape:window-height="573" inkscape:window-y="174" inkscape:current-layer="svg2" inkscape:zoom="1.8443287" inkscape:cx="89.89308" inkscape:window-x="132" inkscape:cy="247.4048" objecttolerance="10.0" bordercolor="#666666" borderopacity="1.0" pagecolor="#ffffff" inkscape:pageshadow="2" gridtolerance="10.0">
	</sodipodi:namedview>
<desc  id="desc4">R SVG Plot!</desc>
<polygon id="rect6" fill="#FFFFFF" points="4.426,8 214.01,8 216.01,282.444 6.426,282.444 "/>
<polyline id="polyline8" fill-opacity="0" stroke="#0000FF" stroke-width="0.9667" points="31.086,61.195 32.837,53.076 
	34.586,72.544 36.335,60.703 38.085,72.844 39.835,90.766 41.585,54.139 43.334,79.524 45.084,81.525 46.833,50.34 48.584,57.948 
	50.333,46.792 52.082,56.063 53.832,56.198 55.581,91.849 57.332,123.643 59.081,67.459 60.821,81.147 62.571,80.365 64.32,53.897 
	66.071,51.684 67.82,43.941 69.57,61.37 71.319,70.814 73.069,77.571 74.819,71.752 76.568,97.514 78.318,79.359 80.067,80.365 
	81.818,79.911 83.567,59.63 85.317,67.895 87.066,65.923 88.816,81.032 90.566,69.731 92.315,74.845 94.065,73.656 95.814,68.185 
	97.565,76.266 99.304,49.78 101.053,54.187 102.804,56.092 104.553,62.25 106.303,70.447 108.052,49.963 109.802,83.719 
	111.552,84.125 113.302,89.848 115.052,88.755 116.801,82.472 118.551,15.163 120.301,51.732 122.051,51.587 123.8,66.425 
	125.549,76.614 127.299,95.532 129.049,65.12 130.799,86.155 132.548,80.722 134.298,56.575 136.048,84.116 137.787,27.294 
	139.537,61.379 141.287,58.412 143.037,71.51 144.786,83.525 146.535,95.938 148.285,82.569 150.035,73.173 151.785,76.923 
	153.534,43.438 155.284,71.123 157.034,50.698 158.784,75.879 160.533,86.522 162.282,73.076 164.032,116.315 165.782,84.405 
	167.532,89.451 169.281,59.166 171.031,56.701 172.781,47.121 174.531,47.759 176.27,34.448 178.02,77.938 179.77,96.576 
	181.519,68.978 183.268,92.129 185.018,93.463 186.768,105.769 188.518,76.286 190.267,29.189 192.017,43.689 193.767,65.633 
	195.517,64.84 197.266,69.944 199.015,78.905 200.765,55.376 202.515,73.878 204.265,54.419 "/>
<circle id="circle10" fill="#FFFFFF" fill-opacity="0" stroke="#0000FF" stroke-width="0.9667" cx="31.086" cy="61.196" r="1.585"/>
<circle id="circle12" fill="#FFFFFF" fill-opacity="0" stroke="#0000FF" stroke-width="0.9667" cx="32.837" cy="53.076" r="1.585"/>
<circle id="circle14" fill="#FFFFFF" fill-opacity="0" stroke="#0000FF" stroke-width="0.9667" cx="34.586" cy="72.544" r="1.585"/>
<circle id="circle16" fill="#FFFFFF" fill-opacity="0" stroke="#0000FF" stroke-width="0.9667" cx="36.335" cy="60.703" r="1.585"/>
<circle id="circle18" fill="#FFFFFF" fill-opacity="0" stroke="#0000FF" stroke-width="0.9667" cx="38.085" cy="72.844" r="1.585"/>
<circle id="circle20" fill="#FFFFFF" fill-opacity="0" stroke="#0000FF" stroke-width="0.9667" cx="39.835" cy="90.766" r="1.585"/>
<circle id="circle22" fill="#FFFFFF" fill-opacity="0" stroke="#0000FF" stroke-width="0.9667" cx="41.585" cy="54.139" r="1.585"/>
<circle id="circle24" fill="#FFFFFF" fill-opacity="0" stroke="#0000FF" stroke-width="0.9667" cx="43.334" cy="79.524" r="1.585"/>
<circle id="circle26" fill="#FFFFFF" fill-opacity="0" stroke="#0000FF" stroke-width="0.9667" cx="45.084" cy="81.525" r="1.585"/>
<circle id="circle28" fill="#FFFFFF" fill-opacity="0" stroke="#0000FF" stroke-width="0.9667" cx="46.833" cy="50.34" r="1.585"/>
<circle id="circle30" fill="#FFFFFF" fill-opacity="0" stroke="#0000FF" stroke-width="0.9667" cx="48.584" cy="57.948" r="1.585"/>
<circle id="circle32" fill="#FFFFFF" fill-opacity="0" stroke="#0000FF" stroke-width="0.9667" cx="50.333" cy="46.792" r="1.585"/>
<circle id="circle34" fill="#FFFFFF" fill-opacity="0" stroke="#0000FF" stroke-width="0.9667" cx="52.082" cy="56.063" r="1.585"/>
<circle id="circle36" fill="#FFFFFF" fill-opacity="0" stroke="#0000FF" stroke-width="0.9667" cx="53.832" cy="56.198" r="1.585"/>
<circle id="circle38" fill="#FFFFFF" fill-opacity="0" stroke="#0000FF" stroke-width="0.9667" cx="55.581" cy="91.849" r="1.585"/>
<circle id="circle40" fill="#FFFFFF" fill-opacity="0" stroke="#0000FF" stroke-width="0.9667" cx="57.332" cy="123.643" r="1.585"/>
<circle id="circle42" fill="#FFFFFF" fill-opacity="0" stroke="#0000FF" stroke-width="0.9667" cx="59.081" cy="67.46" r="1.585"/>
<circle id="circle44" fill="#FFFFFF" fill-opacity="0" stroke="#0000FF" stroke-width="0.9667" cx="60.821" cy="81.147" r="1.585"/>
<circle id="circle46" fill="#FFFFFF" fill-opacity="0" stroke="#0000FF" stroke-width="0.9667" cx="62.571" cy="80.365" r="1.585"/>
<circle id="circle48" fill="#FFFFFF" fill-opacity="0" stroke="#0000FF" stroke-width="0.9667" cx="64.32" cy="53.897" r="1.585"/>
<circle id="circle50" fill="#FFFFFF" fill-opacity="0" stroke="#0000FF" stroke-width="0.9667" cx="66.071" cy="51.684" r="1.585"/>
<circle id="circle52" fill="#FFFFFF" fill-opacity="0" stroke="#0000FF" stroke-width="0.9667" cx="67.82" cy="43.941" r="1.585"/>
<circle id="circle54" fill="#FFFFFF" fill-opacity="0" stroke="#0000FF" stroke-width="0.9667" cx="69.57" cy="61.37" r="1.585"/>
<circle id="circle56" fill="#FFFFFF" fill-opacity="0" stroke="#0000FF" stroke-width="0.9667" cx="71.319" cy="70.814" r="1.585"/>
<circle id="circle58" fill="#FFFFFF" fill-opacity="0" stroke="#0000FF" stroke-width="0.9667" cx="73.069" cy="77.571" r="1.585"/>
<circle id="circle60" fill="#FFFFFF" fill-opacity="0" stroke="#0000FF" stroke-width="0.9667" cx="74.819" cy="71.752" r="1.585"/>
<circle id="circle62" fill="#FFFFFF" fill-opacity="0" stroke="#0000FF" stroke-width="0.9667" cx="76.568" cy="97.514" r="1.585"/>
<circle id="circle64" fill="#FFFFFF" fill-opacity="0" stroke="#0000FF" stroke-width="0.9667" cx="78.318" cy="79.36" r="1.585"/>
<circle id="circle66" fill="#FFFFFF" fill-opacity="0" stroke="#0000FF" stroke-width="0.9667" cx="80.067" cy="80.365" r="1.585"/>
<circle id="circle68" fill="#FFFFFF" fill-opacity="0" stroke="#0000FF" stroke-width="0.9667" cx="81.818" cy="79.91" r="1.585"/>
<circle id="circle70" fill="#FFFFFF" fill-opacity="0" stroke="#0000FF" stroke-width="0.9667" cx="83.567" cy="59.63" r="1.585"/>
<circle id="circle72" fill="#FFFFFF" fill-opacity="0" stroke="#0000FF" stroke-width="0.9667" cx="85.317" cy="67.895" r="1.585"/>
<circle id="circle74" fill="#FFFFFF" fill-opacity="0" stroke="#0000FF" stroke-width="0.9667" cx="87.066" cy="65.923" r="1.585"/>
<circle id="circle76" fill="#FFFFFF" fill-opacity="0" stroke="#0000FF" stroke-width="0.9667" cx="88.816" cy="81.032" r="1.585"/>
<circle id="circle78" fill="#FFFFFF" fill-opacity="0" stroke="#0000FF" stroke-width="0.9667" cx="90.566" cy="69.732" r="1.585"/>
<circle id="circle80" fill="#FFFFFF" fill-opacity="0" stroke="#0000FF" stroke-width="0.9667" cx="92.315" cy="74.845" r="1.585"/>
<circle id="circle82" fill="#FFFFFF" fill-opacity="0" stroke="#0000FF" stroke-width="0.9667" cx="94.065" cy="73.656" r="1.586"/>
<circle id="circle84" fill="#FFFFFF" fill-opacity="0" stroke="#0000FF" stroke-width="0.9667" cx="95.814" cy="68.185" r="1.585"/>
<circle id="circle86" fill="#FFFFFF" fill-opacity="0" stroke="#0000FF" stroke-width="0.9667" cx="97.565" cy="76.266" r="1.585"/>
<circle id="circle88" fill="#FFFFFF" fill-opacity="0" stroke="#0000FF" stroke-width="0.9667" cx="99.304" cy="49.78" r="1.585"/>
<circle id="circle90" fill="#FFFFFF" fill-opacity="0" stroke="#0000FF" stroke-width="0.9667" cx="101.053" cy="54.187" r="1.585"/>
<circle id="circle92" fill="#FFFFFF" fill-opacity="0" stroke="#0000FF" stroke-width="0.9667" cx="102.804" cy="56.092" r="1.585"/>
<circle id="circle94" fill="#FFFFFF" fill-opacity="0" stroke="#0000FF" stroke-width="0.9667" cx="104.553" cy="62.249" r="1.585"/>
<circle id="circle96" fill="#FFFFFF" fill-opacity="0" stroke="#0000FF" stroke-width="0.9667" cx="106.303" cy="70.447" r="1.585"/>
<circle id="circle98" fill="#FFFFFF" fill-opacity="0" stroke="#0000FF" stroke-width="0.9667" cx="108.052" cy="49.963" r="1.585"/>
<circle id="circle100" fill="#FFFFFF" fill-opacity="0" stroke="#0000FF" stroke-width="0.9667" cx="109.802" cy="83.719" r="1.585"/>
<circle id="circle102" fill="#FFFFFF" fill-opacity="0" stroke="#0000FF" stroke-width="0.9667" cx="111.552" cy="84.125" r="1.585"/>
<circle id="circle104" fill="#FFFFFF" fill-opacity="0" stroke="#0000FF" stroke-width="0.9667" cx="113.302" cy="89.848" r="1.585"/>
<circle id="circle106" fill="#FFFFFF" fill-opacity="0" stroke="#0000FF" stroke-width="0.9667" cx="115.052" cy="88.755" r="1.585"/>
<circle id="circle108" fill="#FFFFFF" fill-opacity="0" stroke="#0000FF" stroke-width="0.9667" cx="116.801" cy="82.472" r="1.585"/>
<circle id="circle110" fill="#FFFFFF" fill-opacity="0" stroke="#0000FF" stroke-width="0.9667" cx="118.551" cy="15.163" r="1.585"/>
<circle id="circle112" fill="#FFFFFF" fill-opacity="0" stroke="#0000FF" stroke-width="0.9667" cx="120.301" cy="51.732" r="1.585"/>
<circle id="circle114" fill="#FFFFFF" fill-opacity="0" stroke="#0000FF" stroke-width="0.9667" cx="122.051" cy="51.587" r="1.585"/>
<circle id="circle116" fill="#FFFFFF" fill-opacity="0" stroke="#0000FF" stroke-width="0.9667" cx="123.8" cy="66.425" r="1.585"/>
<circle id="circle118" fill="#FFFFFF" fill-opacity="0" stroke="#0000FF" stroke-width="0.9667" cx="125.549" cy="76.614" r="1.585"/>
<circle id="circle120" fill="#FFFFFF" fill-opacity="0" stroke="#0000FF" stroke-width="0.9667" cx="127.299" cy="95.532" r="1.585"/>
<circle id="circle122" fill="#FFFFFF" fill-opacity="0" stroke="#0000FF" stroke-width="0.9667" cx="129.049" cy="65.12" r="1.585"/>
<circle id="circle124" fill="#FFFFFF" fill-opacity="0" stroke="#0000FF" stroke-width="0.9667" cx="130.799" cy="86.155" r="1.585"/>
<circle id="circle126" fill="#FFFFFF" fill-opacity="0" stroke="#0000FF" stroke-width="0.9667" cx="132.548" cy="80.722" r="1.585"/>
<circle id="circle128" fill="#FFFFFF" fill-opacity="0" stroke="#0000FF" stroke-width="0.9667" cx="134.298" cy="56.575" r="1.585"/>
<circle id="circle130" fill="#FFFFFF" fill-opacity="0" stroke="#0000FF" stroke-width="0.9667" cx="136.048" cy="84.115" r="1.585"/>
<circle id="circle132" fill="#FFFFFF" fill-opacity="0" stroke="#0000FF" stroke-width="0.9667" cx="137.787" cy="27.294" r="1.585"/>
<circle id="circle134" fill="#FFFFFF" fill-opacity="0" stroke="#0000FF" stroke-width="0.9667" cx="139.537" cy="61.379" r="1.585"/>
<circle id="circle136" fill="#FFFFFF" fill-opacity="0" stroke="#0000FF" stroke-width="0.9667" cx="141.287" cy="58.412" r="1.585"/>
<circle id="circle138" fill="#FFFFFF" fill-opacity="0" stroke="#0000FF" stroke-width="0.9667" cx="143.037" cy="71.51" r="1.585"/>
<circle id="circle140" fill="#FFFFFF" fill-opacity="0" stroke="#0000FF" stroke-width="0.9667" cx="144.786" cy="83.526" r="1.585"/>
<circle id="circle142" fill="#FFFFFF" fill-opacity="0" stroke="#0000FF" stroke-width="0.9667" cx="146.535" cy="95.938" r="1.585"/>
<circle id="circle144" fill="#FFFFFF" fill-opacity="0" stroke="#0000FF" stroke-width="0.9667" cx="148.285" cy="82.569" r="1.585"/>
<circle id="circle146" fill="#FFFFFF" fill-opacity="0" stroke="#0000FF" stroke-width="0.9667" cx="150.035" cy="73.173" r="1.585"/>
<circle id="circle148" fill="#FFFFFF" fill-opacity="0" stroke="#0000FF" stroke-width="0.9667" cx="151.785" cy="76.924" r="1.585"/>
<circle id="circle150" fill="#FFFFFF" fill-opacity="0" stroke="#0000FF" stroke-width="0.9667" cx="153.534" cy="43.438" r="1.585"/>
<circle id="circle152" fill="#FFFFFF" fill-opacity="0" stroke="#0000FF" stroke-width="0.9667" cx="155.284" cy="71.123" r="1.585"/>
<circle id="circle154" fill="#FFFFFF" fill-opacity="0" stroke="#0000FF" stroke-width="0.9667" cx="157.034" cy="50.698" r="1.585"/>
<circle id="circle156" fill="#FFFFFF" fill-opacity="0" stroke="#0000FF" stroke-width="0.9667" cx="158.784" cy="75.879" r="1.585"/>
<circle id="circle158" fill="#FFFFFF" fill-opacity="0" stroke="#0000FF" stroke-width="0.9667" cx="160.533" cy="86.522" r="1.585"/>
<circle id="circle160" fill="#FFFFFF" fill-opacity="0" stroke="#0000FF" stroke-width="0.9667" cx="162.282" cy="73.076" r="1.585"/>
<circle id="circle162" fill="#FFFFFF" fill-opacity="0" stroke="#0000FF" stroke-width="0.9667" cx="164.032" cy="116.315" r="1.585"/>
<circle id="circle164" fill="#FFFFFF" fill-opacity="0" stroke="#0000FF" stroke-width="0.9667" cx="165.782" cy="84.405" r="1.585"/>
<circle id="circle166" fill="#FFFFFF" fill-opacity="0" stroke="#0000FF" stroke-width="0.9667" cx="167.532" cy="89.451" r="1.585"/>
<circle id="circle168" fill="#FFFFFF" fill-opacity="0" stroke="#0000FF" stroke-width="0.9667" cx="169.281" cy="59.166" r="1.585"/>
<circle id="circle170" fill="#FFFFFF" fill-opacity="0" stroke="#0000FF" stroke-width="0.9667" cx="171.031" cy="56.701" r="1.585"/>
<circle id="circle172" fill="#FFFFFF" fill-opacity="0" stroke="#0000FF" stroke-width="0.9667" cx="172.781" cy="47.121" r="1.585"/>
<circle id="circle174" fill="#FFFFFF" fill-opacity="0" stroke="#0000FF" stroke-width="0.9667" cx="174.531" cy="47.759" r="1.585"/>
<circle id="circle176" fill="#FFFFFF" fill-opacity="0" stroke="#0000FF" stroke-width="0.9667" cx="176.27" cy="34.448" r="1.585"/>
<circle id="circle178" fill="#FFFFFF" fill-opacity="0" stroke="#0000FF" stroke-width="0.9667" cx="178.02" cy="77.938" r="1.585"/>
<circle id="circle180" fill="#FFFFFF" fill-opacity="0" stroke="#0000FF" stroke-width="0.9667" cx="179.77" cy="96.576" r="1.585"/>
<circle id="circle182" fill="#FFFFFF" fill-opacity="0" stroke="#0000FF" stroke-width="0.9667" cx="181.519" cy="68.978" r="1.585"/>
<circle id="circle184" fill="#FFFFFF" fill-opacity="0" stroke="#0000FF" stroke-width="0.9667" cx="183.268" cy="92.129" r="1.585"/>
<circle id="circle186" fill="#FFFFFF" fill-opacity="0" stroke="#0000FF" stroke-width="0.9667" cx="185.018" cy="93.463" r="1.585"/>
<circle id="circle188" fill="#FFFFFF" fill-opacity="0" stroke="#0000FF" stroke-width="0.9667" cx="186.768" cy="105.769" r="1.585"/>
<circle id="circle190" fill="#FFFFFF" fill-opacity="0" stroke="#0000FF" stroke-width="0.9667" cx="188.518" cy="76.285" r="1.585"/>
<circle id="circle192" fill="#FFFFFF" fill-opacity="0" stroke="#0000FF" stroke-width="0.9667" cx="190.267" cy="29.189" r="1.585"/>
<circle id="circle194" fill="#FFFFFF" fill-opacity="0" stroke="#0000FF" stroke-width="0.9667" cx="192.017" cy="43.689" r="1.585"/>
<circle id="circle196" fill="#FFFFFF" fill-opacity="0" stroke="#0000FF" stroke-width="0.9667" cx="193.767" cy="65.633" r="1.585"/>
<circle id="circle198" fill="#FFFFFF" fill-opacity="0" stroke="#0000FF" stroke-width="0.9667" cx="195.517" cy="64.84" r="1.585"/>
<circle id="circle200" fill="#FFFFFF" fill-opacity="0" stroke="#0000FF" stroke-width="0.9667" cx="197.266" cy="69.944" r="1.585"/>
<circle id="circle202" fill="#FFFFFF" fill-opacity="0" stroke="#0000FF" stroke-width="0.9667" cx="199.015" cy="78.905" r="1.585"/>
<circle id="circle204" fill="#FFFFFF" fill-opacity="0" stroke="#0000FF" stroke-width="0.9667" cx="200.765" cy="55.376" r="1.585"/>
<circle id="circle206" fill="#FFFFFF" fill-opacity="0" stroke="#0000FF" stroke-width="0.9667" cx="202.515" cy="73.878" r="1.585"/>
<circle id="circle208" fill="#FFFFFF" fill-opacity="0" stroke="#0000FF" stroke-width="0.9667" cx="204.265" cy="54.419" r="1.585"/>
<line id="line210" fill="none" stroke="#000000" stroke-width="0.9667" x1="29.337" y1="127.983" x2="204.265" y2="127.983"/>
<line id="line212" fill="none" stroke="#000000" stroke-width="0.9667" x1="29.337" y1="127.983" x2="29.337" y2="130.806"/>
<line id="line214" fill="none" stroke="#000000" stroke-width="0.9667" x1="64.32" y1="127.983" x2="64.32" y2="130.806"/>
<line id="line216" fill="none" stroke="#000000" stroke-width="0.9667" x1="99.304" y1="127.983" x2="99.304" y2="130.806"/>
<line id="line218" fill="none" stroke="#000000" stroke-width="0.9667" x1="134.298" y1="127.983" x2="134.298" y2="130.806"/>
<line id="line220" fill="none" stroke="#000000" stroke-width="0.9667" x1="169.281" y1="127.983" x2="169.281" y2="130.806"/>
<line id="line222" fill="none" stroke="#000000" stroke-width="0.9667" x1="204.265" y1="127.983" x2="204.265" y2="130.806"/>
<text id="text224" transform="matrix(1 0 0 1 27.6448 138.1333)" font-family="'Garamond'" font-size="8">0</text>
<text id="text226" transform="matrix(1 0 0 1 60.5984 138.1333)" font-family="'Garamond'" font-size="8">20</text>
<text id="text228" transform="matrix(1 0 0 1 95.5823 138.1333)" font-family="'Garamond'" font-size="8">40</text>
<text id="text230" transform="matrix(1 0 0 1 130.5759 138.1333)" font-family="'Garamond'" font-size="8">60</text>
<text id="text232" transform="matrix(1 0 0 1 165.5593 138.1333)" font-family="'Garamond'" font-size="8">80</text>
<text id="text234" transform="matrix(1 0 0 1 198.6775 138.1333)" font-family="'Garamond'" font-size="8">100</text>
<line id="line236" fill="none" stroke="#000000" stroke-width="0.9667" x1="24.165" y1="126.204" x2="24.165" y2="16.41"/>
<line id="line238" fill="none" stroke="#000000" stroke-width="0.9667" x1="24.165" y1="126.204" x2="21.342" y2="126.204"/>
<line id="line240" fill="none" stroke="#000000" stroke-width="0.9667" x1="24.165" y1="98.761" x2="21.342" y2="98.761"/>
<line id="line242" fill="none" stroke="#000000" stroke-width="0.9667" x1="24.165" y1="71.307" x2="21.342" y2="71.307"/>
<line id="line244" fill="none" stroke="#000000" stroke-width="0.9667" x1="24.165" y1="43.854" x2="21.342" y2="43.854"/>
<line id="line246" fill="none" stroke="#000000" stroke-width="0.9667" x1="24.165" y1="16.41" x2="21.342" y2="16.41"/>
<text id="text248" transform="matrix(6.123234e-17 -1 1 6.123234e-17 19.6511 129.3076)" font-family="'Garamond'" font-size="8">-4</text>
<text id="text250" transform="matrix(6.123234e-17 -1 1 6.123234e-17 19.6511 101.8535)" font-family="'Garamond'" font-size="8">-2</text>
<text id="text252" transform="matrix(6.123234e-17 -1 1 6.123234e-17 19.6511 73.1631)" font-family="'Garamond'" font-size="8">0</text>
<text id="text254" transform="matrix(6.123234e-17 -1 1 6.123234e-17 19.6511 45.7188)" font-family="'Garamond'" font-size="8">2</text>
<text id="text256" transform="matrix(6.123234e-17 -1 1 6.123234e-17 19.6511 18.2666)" font-family="'Garamond'" font-size="8">4</text>
<polyline id="polyline258" fill-opacity="0" stroke="#000000" stroke-width="0.9667" points="24.165,127.983 211.186,127.983 
	211.186,10.823 24.165,10.823 24.165,127.983 "/>
<text id="text260" transform="matrix(6.123234e-17 -1 1 6.123234e-17 10.051 71.0938)" font-family="'Garamond'" font-size="11.6">x</text>
<line id="line262" fill="none" stroke="#000000" stroke-width="0.9667" x1="31.086" y1="231.968" x2="31.086" y2="154.886"/>
<line id="line264" fill="none" stroke="#000000" stroke-width="0.9667" x1="32.837" y1="231.968" x2="32.837" y2="209.425"/>
<line id="line266" fill="none" stroke="#000000" stroke-width="0.9667" x1="34.586" y1="231.968" x2="34.586" y2="220.744"/>
<line id="line268" fill="none" stroke="#000000" stroke-width="0.9667" x1="36.335" y1="231.968" x2="36.335" y2="241.238"/>
<line id="line270" fill="none" stroke="#000000" stroke-width="0.9667" x1="38.085" y1="231.968" x2="38.085" y2="263.364"/>
<line id="line272" fill="none" stroke="#000000" stroke-width="0.9667" x1="39.835" y1="231.968" x2="39.835" y2="262.65"/>
<line id="line274" fill="none" stroke="#000000" stroke-width="0.9667" x1="41.585" y1="231.968" x2="41.585" y2="262.225"/>
<line id="line276" fill="none" stroke="#000000" stroke-width="0.9667" x1="43.334" y1="231.968" x2="43.334" y2="246.65"/>
<line id="line278" fill="none" stroke="#000000" stroke-width="0.9667" x1="45.084" y1="231.968" x2="45.084" y2="229.444"/>
<line id="line280" fill="none" stroke="#000000" stroke-width="0.9667" x1="46.833" y1="231.968" x2="46.833" y2="208.235"/>
<line id="line282" fill="none" stroke="#000000" stroke-width="0.9667" x1="48.584" y1="231.968" x2="48.584" y2="210.188"/>
<line id="line284" fill="none" stroke="#000000" stroke-width="0.9667" x1="50.333" y1="231.968" x2="50.333" y2="197.351"/>
<line id="line286" fill="none" stroke="#000000" stroke-width="0.9667" x1="52.082" y1="231.968" x2="52.082" y2="220.899"/>
<line id="line288" fill="none" stroke="#000000" stroke-width="0.9667" x1="53.832" y1="231.968" x2="53.832" y2="234.161"/>
<line id="line290" fill="none" stroke="#000000" stroke-width="0.9667" x1="55.581" y1="231.968" x2="55.581" y2="247.569"/>
<line id="line292" fill="none" stroke="#000000" stroke-width="0.9667" x1="57.332" y1="231.968" x2="57.332" y2="262.92"/>
<line id="line294" fill="none" stroke="#000000" stroke-width="0.9667" x1="59.081" y1="231.968" x2="59.081" y2="249.929"/>
<line id="line296" fill="none" stroke="#000000" stroke-width="0.9667" x1="60.821" y1="231.968" x2="60.821" y2="246.834"/>
<line id="line298" fill="none" stroke="#000000" stroke-width="0.9667" x1="62.571" y1="231.968" x2="62.571" y2="226.68"/>
<line id="line300" fill="none" stroke="#000000" stroke-width="0.9667" x1="64.32" y1="231.968" x2="64.32" y2="215.534"/>
<line id="line302" fill="none" stroke="#000000" stroke-width="0.9667" x1="66.071" y1="231.968" x2="66.071" y2="208.303"/>
<line id="line304" fill="none" stroke="#000000" stroke-width="0.9667" x1="67.82" y1="231.968" x2="67.82" y2="215.225"/>
<line id="line306" fill="none" stroke="#000000" stroke-width="0.9667" x1="69.57" y1="231.968" x2="69.57" y2="219.652"/>
<line id="line308" fill="none" stroke="#000000" stroke-width="0.9667" x1="71.319" y1="231.968" x2="71.319" y2="238.01"/>
<line id="line310" fill="none" stroke="#000000" stroke-width="0.9667" x1="73.069" y1="231.968" x2="73.069" y2="248.903"/>
<line id="line312" fill="none" stroke="#000000" stroke-width="0.9667" x1="74.819" y1="231.968" x2="74.819" y2="252.229"/>
<line id="line314" fill="none" stroke="#000000" stroke-width="0.9667" x1="76.568" y1="231.968" x2="76.568" y2="259.488"/>
<line id="line316" fill="none" stroke="#000000" stroke-width="0.9667" x1="78.318" y1="231.968" x2="78.318" y2="241.508"/>
<line id="line318" fill="none" stroke="#000000" stroke-width="0.9667" x1="80.067" y1="231.968" x2="80.067" y2="233.61"/>
<line id="line320" fill="none" stroke="#000000" stroke-width="0.9667" x1="81.818" y1="231.968" x2="81.818" y2="216.693"/>
<line id="line322" fill="none" stroke="#000000" stroke-width="0.9667" x1="83.567" y1="231.968" x2="83.567" y2="210.353"/>
<line id="line324" fill="none" stroke="#000000" stroke-width="0.9667" x1="85.317" y1="231.968" x2="85.317" y2="207.453"/>
<line id="line326" fill="none" stroke="#000000" stroke-width="0.9667" x1="87.066" y1="231.968" x2="87.066" y2="224.805"/>
<line id="line328" fill="none" stroke="#000000" stroke-width="0.9667" x1="88.816" y1="231.968" x2="88.816" y2="229.338"/>
<line id="line330" fill="none" stroke="#000000" stroke-width="0.9667" x1="90.566" y1="231.968" x2="90.566" y2="243.818"/>
<line id="line332" fill="none" stroke="#000000" stroke-width="0.9667" x1="92.315" y1="231.968" x2="92.315" y2="257.101"/>
<line id="line334" fill="none" stroke="#000000" stroke-width="0.9667" x1="94.065" y1="231.968" x2="94.065" y2="249.957"/>
<line id="line336" fill="none" stroke="#000000" stroke-width="0.9667" x1="95.814" y1="231.968" x2="95.814" y2="249.773"/>
<line id="line338" fill="none" stroke="#000000" stroke-width="0.9667" x1="97.565" y1="231.968" x2="97.565" y2="230.382"/>
<line id="line340" fill="none" stroke="#000000" stroke-width="0.9667" x1="99.304" y1="231.968" x2="99.304" y2="225.549"/>
<line id="line342" fill="none" stroke="#000000" stroke-width="0.9667" x1="101.053" y1="231.968" x2="101.053" y2="209.087"/>
<line id="line344" fill="none" stroke="#000000" stroke-width="0.9667" x1="102.804" y1="231.968" x2="102.804" y2="209.734"/>
<line id="line346" fill="none" stroke="#000000" stroke-width="0.9667" x1="104.553" y1="231.968" x2="104.553" y2="219.768"/>
<line id="line348" fill="none" stroke="#000000" stroke-width="0.9667" x1="106.303" y1="231.968" x2="106.303" y2="228.95"/>
<line id="line350" fill="none" stroke="#000000" stroke-width="0.9667" x1="108.052" y1="231.968" x2="108.052" y2="241.625"/>
<line id="line352" fill="none" stroke="#000000" stroke-width="0.9667" x1="109.802" y1="231.968" x2="109.802" y2="245.461"/>
<line id="line354" fill="none" stroke="#000000" stroke-width="0.9667" x1="111.552" y1="231.968" x2="111.552" y2="251.63"/>
<line id="line356" fill="none" stroke="#000000" stroke-width="0.9667" x1="113.302" y1="231.968" x2="113.302" y2="235.418"/>
<line id="line358" fill="none" stroke="#000000" stroke-width="0.9667" x1="115.052" y1="231.968" x2="115.052" y2="235.003"/>
<line id="line360" fill="none" stroke="#000000" stroke-width="0.9667" x1="116.801" y1="231.968" x2="116.801" y2="224.882"/>
<line id="line362" fill="none" stroke="#000000" stroke-width="0.9667" x1="118.551" y1="231.968" x2="118.551" y2="218.047"/>
<line id="line364" fill="none" stroke="#000000" stroke-width="0.9667" x1="120.301" y1="231.968" x2="120.301" y2="219.98"/>
<line id="line366" fill="none" stroke="#000000" stroke-width="0.9667" x1="122.051" y1="231.968" x2="122.051" y2="222.194"/>
<line id="line368" fill="none" stroke="#000000" stroke-width="0.9667" x1="123.8" y1="231.968" x2="123.8" y2="231.764"/>
<line id="line370" fill="none" stroke="#000000" stroke-width="0.9667" x1="125.549" y1="231.968" x2="125.549" y2="240.967"/>
<line id="line372" fill="none" stroke="#000000" stroke-width="0.9667" x1="127.299" y1="231.968" x2="127.299" y2="242.784"/>
<line id="line374" fill="none" stroke="#000000" stroke-width="0.9667" x1="129.049" y1="231.968" x2="129.049" y2="242.185"/>
<line id="line376" fill="none" stroke="#000000" stroke-width="0.9667" x1="130.799" y1="231.968" x2="130.799" y2="242.204"/>
<line id="line378" fill="none" stroke="#000000" stroke-width="0.9667" x1="132.548" y1="231.968" x2="132.548" y2="229.898"/>
<line id="line380" fill="none" stroke="#000000" stroke-width="0.9667" x1="134.298" y1="231.968" x2="134.298" y2="224.272"/>
<line id="line382" fill="none" stroke="#000000" stroke-width="0.9667" x1="136.048" y1="231.968" x2="136.048" y2="221.711"/>
<line id="line384" fill="none" stroke="#000000" stroke-width="0.9667" x1="137.787" y1="231.968" x2="137.787" y2="214.258"/>
<line id="line386" fill="none" stroke="#000000" stroke-width="0.9667" x1="139.537" y1="231.968" x2="139.537" y2="222.368"/>
<line id="line388" fill="none" stroke="#000000" stroke-width="0.9667" x1="141.287" y1="231.968" x2="141.287" y2="229.27"/>
<line id="line390" fill="none" stroke="#000000" stroke-width="0.9667" x1="143.037" y1="231.968" x2="143.037" y2="237.796"/>
<line id="line392" fill="none" stroke="#000000" stroke-width="0.9667" x1="144.786" y1="231.968" x2="144.786" y2="247.144"/>
<line id="line394" fill="none" stroke="#000000" stroke-width="0.9667" x1="146.535" y1="231.968" x2="146.535" y2="243.887"/>
<line id="line396" fill="none" stroke="#000000" stroke-width="0.9667" x1="148.285" y1="231.968" x2="148.285" y2="241.74"/>
<line id="line398" fill="none" stroke="#000000" stroke-width="0.9667" x1="150.035" y1="231.968" x2="150.035" y2="241.267"/>
<line id="line400" fill="none" stroke="#000000" stroke-width="0.9667" x1="151.785" y1="231.968" x2="151.785" y2="229.174"/>
<line id="line402" fill="none" stroke="#000000" stroke-width="0.9667" x1="153.534" y1="231.968" x2="153.534" y2="222.126"/>
<line id="line404" fill="none" stroke="#000000" stroke-width="0.9667" x1="155.284" y1="231.968" x2="155.284" y2="221.691"/>
<line id="line406" fill="none" stroke="#000000" stroke-width="0.9667" x1="157.034" y1="231.968" x2="157.034" y2="222.852"/>
<line id="line408" fill="none" stroke="#000000" stroke-width="0.9667" x1="158.784" y1="231.968" x2="158.784" y2="229.116"/>
<line id="line410" fill="none" stroke="#000000" stroke-width="0.9667" x1="160.533" y1="231.968" x2="160.533" y2="230.072"/>
<line id="line412" fill="none" stroke="#000000" stroke-width="0.9667" x1="162.282" y1="231.968" x2="162.282" y2="236.366"/>
<line id="line414" fill="none" stroke="#000000" stroke-width="0.9667" x1="164.032" y1="231.968" x2="164.032" y2="242.968"/>
<line id="line416" fill="none" stroke="#000000" stroke-width="0.9667" x1="165.782" y1="231.968" x2="165.782" y2="240.3"/>
<line id="line418" fill="none" stroke="#000000" stroke-width="0.9667" x1="167.532" y1="231.968" x2="167.532" y2="236.057"/>
<line id="line420" fill="none" stroke="#000000" stroke-width="0.9667" x1="169.281" y1="231.968" x2="169.281" y2="231.948"/>
<line id="line422" fill="none" stroke="#000000" stroke-width="0.9667" x1="171.031" y1="231.968" x2="171.031" y2="226.322"/>
<line id="line424" fill="none" stroke="#000000" stroke-width="0.9667" x1="172.781" y1="231.968" x2="172.781" y2="226.709"/>
<line id="line426" fill="none" stroke="#000000" stroke-width="0.9667" x1="174.531" y1="231.968" x2="174.531" y2="228.266"/>
<line id="line428" fill="none" stroke="#000000" stroke-width="0.9667" x1="176.27" y1="231.968" x2="176.27" y2="231.223"/>
<line id="line430" fill="none" stroke="#000000" stroke-width="0.9667" x1="178.02" y1="231.968" x2="178.02" y2="234.848"/>
<line id="line432" fill="none" stroke="#000000" stroke-width="0.9667" x1="179.77" y1="231.968" x2="179.77" y2="232.229"/>
<line id="line434" fill="none" stroke="#000000" stroke-width="0.9667" x1="181.519" y1="231.968" x2="181.519" y2="233.833"/>
<line id="line436" fill="none" stroke="#000000" stroke-width="0.9667" x1="183.268" y1="231.968" x2="183.268" y2="234.558"/>
<line id="line438" fill="none" stroke="#000000" stroke-width="0.9667" x1="185.018" y1="231.968" x2="185.018" y2="231.571"/>
<line id="line440" fill="none" stroke="#000000" stroke-width="0.9667" x1="186.768" y1="231.968" x2="186.768" y2="232.925"/>
<line id="line442" fill="none" stroke="#000000" stroke-width="0.9667" x1="188.518" y1="231.968" x2="188.518" y2="230.518"/>
<line id="line444" fill="none" stroke="#000000" stroke-width="0.9667" x1="190.267" y1="231.968" x2="190.267" y2="229.444"/>
<line id="line446" fill="none" stroke="#000000" stroke-width="0.9667" x1="192.017" y1="231.968" x2="192.017" y2="232.489"/>
<line id="line448" fill="none" stroke="#000000" stroke-width="0.9667" x1="193.767" y1="231.968" x2="193.767" y2="231.243"/>
<line id="line450" fill="none" stroke="#000000" stroke-width="0.9667" x1="195.517" y1="231.968" x2="195.517" y2="232.247"/>
<line id="line452" fill="none" stroke="#000000" stroke-width="0.9667" x1="197.266" y1="231.968" x2="197.266" y2="232.644"/>
<line id="line454" fill="none" stroke="#000000" stroke-width="0.9667" x1="199.015" y1="231.968" x2="199.015" y2="231.252"/>
<line id="line456" fill="none" stroke="#000000" stroke-width="0.9667" x1="200.765" y1="231.968" x2="200.765" y2="231.958"/>
<line id="line458" fill="none" stroke="#000000" stroke-width="0.9667" x1="202.515" y1="231.968" x2="202.515" y2="231.465"/>
<line id="line460" fill="none" stroke="#000000" stroke-width="0.9667" x1="204.265" y1="231.968" x2="204.265" y2="231.668"/>
<line id="line462" fill="none" stroke="#000000" stroke-width="0.9667" x1="31.086" y1="267.705" x2="206.014" y2="267.705"/>
<line id="line464" fill="none" stroke="#000000" stroke-width="0.9667" x1="31.086" y1="267.705" x2="31.086" y2="270.527"/>
<line id="line466" fill="none" stroke="#000000" stroke-width="0.9667" x1="66.071" y1="267.705" x2="66.071" y2="270.527"/>
<line id="line468" fill="none" stroke="#000000" stroke-width="0.9667" x1="101.053" y1="267.705" x2="101.053" y2="270.527"/>
<line id="line470" fill="none" stroke="#000000" stroke-width="0.9667" x1="136.048" y1="267.705" x2="136.048" y2="270.527"/>
<line id="line472" fill="none" stroke="#000000" stroke-width="0.9667" x1="171.031" y1="267.705" x2="171.031" y2="270.527"/>
<line id="line474" fill="none" stroke="#000000" stroke-width="0.9667" x1="206.014" y1="267.705" x2="206.014" y2="270.527"/>
<text id="text476" transform="matrix(1 0 0 1 29.2302 277.8555)" font-family="'Garamond'" font-size="8">0</text>
<text id="text478" transform="matrix(1 0 0 1 62.3484 277.8555)" font-family="'Garamond'" font-size="8">20</text>
<text id="text480" transform="matrix(1 0 0 1 97.3318 277.8555)" font-family="'Garamond'" font-size="8">40</text>
<text id="text482" transform="matrix(1 0 0 1 132.325 277.8555)" font-family="'Garamond'" font-size="8">60</text>
<text id="text484" transform="matrix(1 0 0 1 167.3093 277.8555)" font-family="'Garamond'" font-size="8">80</text>
<text id="text486" transform="matrix(1 0 0 1 200.4265 277.8555)" font-family="'Garamond'" font-size="8">100</text>
<line id="line488" fill="none" stroke="#000000" stroke-width="0.9667" x1="24.165" y1="262.804" x2="24.165" y2="154.886"/>
<line id="line490" fill="none" stroke="#000000" stroke-width="0.9667" x1="24.165" y1="262.804" x2="21.342" y2="262.804"/>
<line id="line492" fill="none" stroke="#000000" stroke-width="0.9667" x1="24.165" y1="247.386" x2="21.342" y2="247.386"/>
<line id="line494" fill="none" stroke="#000000" stroke-width="0.9667" x1="24.165" y1="231.968" x2="21.342" y2="231.968"/>
<line id="line496" fill="none" stroke="#000000" stroke-width="0.9667" x1="24.165" y1="216.549" x2="21.342" y2="216.549"/>
<line id="line498" fill="none" stroke="#000000" stroke-width="0.9667" x1="24.165" y1="201.131" x2="21.342" y2="201.131"/>
<line id="line500" fill="none" stroke="#000000" stroke-width="0.9667" x1="24.165" y1="185.712" x2="21.342" y2="185.712"/>
<line id="line502" fill="none" stroke="#000000" stroke-width="0.9667" x1="24.165" y1="170.303" x2="21.342" y2="170.303"/>
<line id="line504" fill="none" stroke="#000000" stroke-width="0.9667" x1="24.165" y1="154.886" x2="21.342" y2="154.886"/>
<text id="text506" transform="matrix(6.123234e-17 -1 1 6.123234e-17 19.6511 270.7979)" font-family="'Garamond'" font-size="8">-0.4</text>
<text id="text508" transform="matrix(6.123234e-17 -1 1 6.123234e-17 19.6511 237.7227)" font-family="'Garamond'" font-size="8">0.0</text>
<text id="text512" transform="matrix(6.123234e-17 -1 1 6.123234e-17 19.6511 206.8867)" font-family="'Garamond'" font-size="8">0.4</text>
<text id="text516" transform="matrix(6.123234e-17 -1 1 6.123234e-17 19.6511 176.0508)" font-family="'Garamond'" font-size="8">0.8</text>
<polyline id="polyline520" fill-opacity="0" stroke="#000000" stroke-width="0.9667" points="24.165,267.705 211.186,267.705 
	211.186,150.545 24.165,150.545 24.165,267.705 "/>
<text id="text522" transform="matrix(6.123234e-17 -1 1 6.123234e-17 10.051 216.0566)" font-family="'Garamond'" font-size="11.6">ACF</text>
<line id="line524" fill="none" stroke="#000000" stroke-width="0.9667" x1="24.165" y1="231.968" x2="211.186" y2="231.968"/>
<line id="line526" fill="none" stroke="#0000FF" stroke-width="0.9667" stroke-dasharray="3.8667,0.9667" x1="24.165" y1="216.857" x2="211.186" y2="216.857"/>
<line id="line528" fill="none" stroke="#0000FF" stroke-width="0.9667" stroke-dasharray="3.8667,0.9667" x1="24.165" y1="247.075" x2="211.186" y2="247.075"/>
</svg>
